:SAMPLES-PER-SECOND 30
:FRAME-RANGE 1-3358
:FULLY-SPECIFIED
:DEGREES
1155
root  38.3016 37.4287 78.9573 -3.31909 68.4166 -7.72531
RightUpLeg  -25.0649 1.20255 -6.11149
RightLeg  8.26729 22.2569 0.596665
RightFoot  -10.7264 -0.159074 15.8894
RightToes  -1.11029e-010 1.2921e-014 -6.02303e-014
Spine  -2.32685 0.37948 6.82508
Spine1  5.74703 1.20922 -3.87709
HEad  -2.71784 64.6187 -15.2646
LeftShoulder1  1.00826 -0.263043 -22.1717
LeftArm  7.86453 -3.21568 -59.5244
LeftForeArm  37.0338 -4.52271 -13.3912
LeftHand  -0.0262361 5.49241 4.01644
RightShoulder  1.46144 1.27913 25.8021
RightArm  -24.312 -12.8188 41.4728
RightForeArm  67.4803 -4.43461 4.52547
RightHand  0.130235 -6.53137 -15.0578
LeftUpLeg  -1.8242 -23.0985 -10.4008
LeftLeg  29.1376 0.746607 0.805523
LeftFoot  -18.9702 0.855484 11.0779
LeftToes  -1.90334e-010 -8.83595e-011 4.99953e-011
1156
root  39.1126 37.1705 79.6695 -5.28961 70.8502 -9.5946
RightUpLeg  -27.233 13.5641 -10.0993
RightLeg  14.3406 13.2263 1.98098
RightFoot  -6.04122 -0.842429 17.1861
RightToes  -1.11029e-010 1.2921e-014 -6.02303e-014
Spine  -1.94491 0.526682 7.92401
Spine1  6.0853 1.45954 -4.30405
HEad  -5.23291 66.5243 -17.11
LeftShoulder1  1.04579 -0.369387 -22.3885
LeftArm  6.08036 -2.54894 -58.487
LeftForeArm  37.1321 -3.92507 -13.3166
LeftHand  -0.0213823 5.4946 4.30451
RightShoulder  1.4895 1.37005 25.7857
RightArm  -24.1686 -12.3809 40.5993
RightForeArm  67.5644 -5.00998 4.45379
RightHand  0.11252 -6.36945 -15.3583
LeftUpLeg  -1.04868 -23.3896 -9.79865
LeftLeg  31.9789 -0.670849 -0.0920155
LeftFoot  -20.3693 0.951549 10.4658
LeftToes  -1.90334e-010 -8.83595e-011 4.99953e-011
1157
root  39.9333 36.8226 80.3471 -10.0453 73.8277 -14.212
RightUpLeg  -29.1621 17.1232 -10.8606
RightLeg  21.1197 6.94044 2.74291
RightFoot  -4.86111 -1.15988 19.7165
RightToes  -1.11029e-010 1.2921e-014 -6.02303e-014
Spine  -0.919089 0.264685 8.99785
Spine1  5.29021 1.20154 -4.26827
HEad  -6.42936 67.666 -18.8914
LeftShoulder1  1.08643 -0.376531 -23.4972
LeftArm  4.00406 -1.53424 -56.9023
LeftForeArm  38.031 -3.19838 -13.1905
LeftHand  -0.0171674 5.61998 4.35864
RightShoulder  1.47272 1.38055 25.3347
RightArm  -23.8869 -11.4101 39.5657
RightForeArm  67.875 -5.53959 4.43577
RightHand  0.126122 -6.46406 -15.4811
LeftUpLeg  -1.72216 -22.7627 -8.00385
LeftLeg  37.4448 -3.25039 -2.2909
LeftFoot  -20.981 0.968865 9.96297
LeftToes  -1.90334e-010 -8.83595e-011 4.99953e-011
1158
root  40.6654 36.6605 80.8984 -17.9666 77.3506 -22.068
RightUpLeg  -29.3469 14.0676 -8.55681
RightLeg  26.6431 6.04655 3.06957
RightFoot  -5.38503 -0.84164 15.3826
RightToes  -1.11029e-010 1.2921e-014 -6.02303e-014
Spine  -0.264481 -0.141028 9.6143
Spine1  5.2818 0.574568 -3.17194
HEad  -7.46603 67.593 -20.6584
LeftShoulder1  1.24442 -0.815515 -24.227
LeftArm  1.67301 -1.15472 -55.9367
LeftForeArm  38.4699 -1.21976 -13.173
LeftHand  -0.00732771 5.86682 4.69186
RightShoulder  1.46243 1.39101 25.0306
RightArm  -23.5828 -10.2027 38.4644
RightForeArm  67.6466 -5.56013 4.50773
RightHand  0.196207 -6.96883 -15.7357
LeftUpLeg  -4.04443 -21.4231 -5.27741
LeftLeg  44.0939 -6.29523 -6.09115
LeftFoot  -18.6164 0.56673 7.14246
LeftToes  -1.90334e-010 -8.83595e-011 4.99953e-011
1159
root  41.2629 36.6686 81.3517 -29.7262 81.1796 -33.9486
RightUpLeg  -28.5849 13.052 -7.67665
RightLeg  29.3641 3.06038 1.62927
RightFoot  -7.20865 -0.557894 14.0314
RightToes  -1.11029e-010 1.2921e-014 -6.02303e-014
Spine  0.15219 -0.523103 9.94773
Spine1  5.56421 0.0687738 -2.27666
HEad  -8.11341 66.4821 -21.0308
LeftShoulder1  1.38954 -1.35382 -23.8369
LeftArm  -0.035677 -1.59379 -56.0435
LeftForeArm  38.5775 1.76409 -13.15
LeftHand  0.00652743 6.16472 5.10016
RightShoulder  1.4215 1.22981 25.2381
RightArm  -23.4031 -8.85855 37.5513
RightForeArm  66.4733 -5.60928 4.53857
RightHand  0.22288 -7.09163 -16.3702
LeftUpLeg  -7.80335 -19.9516 -2.54297
LeftLeg  50.6349 -8.11918 -10.0348
LeftFoot  -15.2514 0.0868889 -0.13486
LeftToes  -1.90334e-010 -8.83595e-011 4.99953e-011
1160
root  41.8083 36.7433 81.7094 -48.7444 83.7738 -53.1954
RightUpLeg  -27.4725 10.6656 -6.81635
RightLeg  30.6087 2.17618 1.15084
RightFoot  -8.66709 -0.372038 13.347
RightToes  -1.11029e-010 1.2921e-014 -6.02303e-014
Spine  0.612363 -0.537591 10.769
Spine1  5.6565 0.160502 -2.33723
HEad  -8.56848 65.091 -21.1834
LeftShoulder1  1.39206 -1.3879 -23.6656
LeftArm  -0.684247 -2.37516 -56.1894
LeftForeArm  38.7542 4.08214 -13.109
LeftHand  0.0153272 6.42403 4.96288
RightShoulder  1.47261 1.43485 24.9556
RightArm  -22.9801 -7.80587 37.196
RightForeArm  63.5484 -5.63958 4.79399
RightHand  0.65626 -9.39107 -19.4075
LeftUpLeg  -11.6915 -17.0438 -0.136449
LeftLeg  55.4844 -7.54925 -11.1556
LeftFoot  -13.8595 -0.0629807 -6.63483
LeftToes  -1.90334e-010 -8.83595e-011 4.99953e-011
1161
root  42.3469 36.9815 82.0068 -77.7365 85.4736 -82.4987
RightUpLeg  -25.7701 8.0926 -6.55353
RightLeg  30.1734 1.72974 0.848558
RightFoot  -9.43871 -0.278007 12.8132
RightToes  -1.11029e-010 1.2921e-014 -6.02303e-014
Spine  0.836259 -0.377741 10.7227
Spine1  5.74899 0.412337 -2.76576
HEad  -9.33443 63.7177 -21.5487
LeftShoulder1  1.40364 -1.40452 -23.8144
LeftArm  -1.38177 -2.58499 -56.0304
LeftForeArm  38.6259 4.95959 -12.8785
LeftHand  0.0193618 6.49972 5.06899
RightShoulder  1.65697 2.12352 24.4091
RightArm  -21.7639 -6.82945 36.9434
RightForeArm  61.4436 -5.19261 5.5529
RightHand  0.849292 -10.091 -21.145
LeftUpLeg  -15.0475 -12.9059 1.20982
LeftLeg  57.6079 -5.25989 -8.3533
LeftFoot  -15.3345 -0.123345 -6.16757
LeftToes  -1.90334e-010 -8.83595e-011 4.99953e-011
1162
root  42.8315 37.2761 82.238 -125.365 85.1939 -130.687
RightUpLeg  -23.9151 5.13066 -6.77681
RightLeg  28.9311 0.989597 0.357253
RightFoot  -9.86418 -0.229024 12.4992
RightToes  -1.11029e-010 1.2921e-014 -6.02303e-014
Spine  0.856792 -0.394661 10.1912
Spine1  5.78456 0.401772 -2.96043
HEad  -10.3083 62.1304 -21.8804
LeftShoulder1  1.47501 -1.64308 -23.8218
LeftArm  -1.35581 -2.32102 -55.8069
LeftForeArm  37.4915 4.8185 -12.8895
LeftHand  0.0106708 6.26797 5.10979
RightShoulder  1.69071 2.29461 24.0663
RightArm  -22.3959 -5.0868 37.1238
RightForeArm  61.9746 -5.30317 5.16359
RightHand  0.811559 -9.74774 -21.766
LeftUpLeg  -18.3646 -8.87844 1.97399
LeftLeg  57.3276 -3.54327 -5.4151
LeftFoot  -15.5553 -0.122239 -5.85079
LeftToes  -1.90334e-010 -8.83595e-011 4.99953e-011
1163
root  43.2556 37.5897 82.3926 -151.713 82.205 -157.758
RightUpLeg  -21.9663 2.03058 -6.95033
RightLeg  27.0509 0.0466489 -0.20492
RightFoot  -9.84254 -0.230334 12.4304
RightToes  -1.11029e-010 1.2921e-014 -6.02303e-014
Spine  0.721735 -0.451653 9.97391
Spine1  5.91963 0.31814 -3.09773
HEad  -11.1785 60.0277 -22.366
LeftShoulder1  1.53448 -1.85265 -23.7619
LeftArm  -1.59261 -1.9339 -55.7236
LeftForeArm  36.6325 3.875 -12.7718
LeftHand  0.00295083 6.06667 5.13973
RightShoulder  1.71281 2.50237 23.3319
RightArm  -21.814 -3.94629 37.4252
RightForeArm  61.4371 -4.38155 5.58583
RightHand  0.849883 -9.98493 -21.6136
LeftUpLeg  -21.6551 -4.41338 2.49702
LeftLeg  55.3006 -1.92744 -2.49019
LeftFoot  -14.9279 -0.0568317 -4.66959
LeftToes  -1.90334e-010 -8.83595e-011 4.99953e-011
